HIERARCHY
ROOT Hips
{
	OFFSET 0.000000 0.000000 0.000000
	CHANNELS 6 Xposition Yposition Zposition Xrotation Yrotation Zrotation
	JOINT Chest
	{
		OFFSET 0.000000 0.009282 11.569106
		CHANNELS 3 Xrotation Yrotation Zrotation
		JOINT Chest2
		{
			OFFSET 0.000000 -0.016863 9.269641
			CHANNELS 3 Xrotation Yrotation Zrotation
			JOINT Chest3
			{
				OFFSET 0.000000 -0.000000 8.374491
				CHANNELS 3 Xrotation Yrotation Zrotation
				JOINT Chest4
				{
					OFFSET 0.000000 -0.000000 8.374493
					CHANNELS 3 Xrotation Yrotation Zrotation
					JOINT Neck
					{
						OFFSET 0.000000 -0.000001 12.152554
						CHANNELS 3 Xrotation Yrotation Zrotation
						JOINT Head
						{
							OFFSET 0.000000 -0.040100 7.802319
							CHANNELS 3 Xrotation Yrotation Zrotation
							End Site
							{
								OFFSET 0.000000 -0.020946 14.853096
							}
						}
					}
					JOINT RightCollar
					{
						OFFSET -2.894404 -0.000000 6.791374
						CHANNELS 3 Xrotation Yrotation Zrotation
						JOINT RightShoulder
						{
							OFFSET -13.574684 0.000000 0.000000
							CHANNELS 3 Xrotation Yrotation Zrotation
							JOINT RightElbow
							{
								OFFSET -23.923903 0.000000 0.000000
								CHANNELS 3 Xrotation Yrotation Zrotation
								JOINT RightWrist
								{
									OFFSET -19.846718 -0.012765 0.000000
									CHANNELS 3 Xrotation Yrotation Zrotation
									End Site
									{
										OFFSET -14.973145 0.000000 0.000000
									}
								}
							}
						}
					}
					JOINT LeftCollar
					{
						OFFSET 2.894404 -0.000000 6.791374
						CHANNELS 3 Xrotation Yrotation Zrotation
						JOINT LeftShoulder
						{
							OFFSET 13.574684 0.000000 0.000000
							CHANNELS 3 Xrotation Yrotation Zrotation
							JOINT LeftElbow
							{
								OFFSET 23.923903 0.000000 0.000000
								CHANNELS 3 Xrotation Yrotation Zrotation
								JOINT LeftWrist
								{
									OFFSET 19.846718 -0.012765 0.000000
									CHANNELS 3 Xrotation Yrotation Zrotation
									End Site
									{
										OFFSET 14.973145 0.000000 0.000000
									}
								}
							}
						}
					}
				}
			}
		}
	}
	JOINT RightHip
	{
		OFFSET -9.469263 -0.004642 0.045487
		CHANNELS 3 Xrotation Yrotation Zrotation
		JOINT RightKnee
		{
			OFFSET 0.000000 -0.002666 -40.478676
			CHANNELS 3 Xrotation Yrotation Zrotation
			JOINT RightAnkle
			{
				OFFSET 0.000000 -0.049110 -35.224068
				CHANNELS 3 Xrotation Yrotation Zrotation
				JOINT RightToe
				{
					OFFSET 0.000000 -12.539530 -6.151390
					CHANNELS 3 Xrotation Yrotation Zrotation
					End Site
					{
						OFFSET 0.000000 -5.044995 -1.291870
					}
				}
			}
		}
	}
	JOINT LeftHip
	{
		OFFSET 9.469263 -0.004642 0.045487
		CHANNELS 3 Xrotation Yrotation Zrotation
		JOINT LeftKnee
		{
			OFFSET 0.000000 -0.002666 -40.478676
			CHANNELS 3 Xrotation Yrotation Zrotation
			JOINT LeftAnkle
			{
				OFFSET 0.000000 -0.049110 -35.224068
				CHANNELS 3 Xrotation Yrotation Zrotation
				JOINT LeftToe
				{
					OFFSET 0.000000 -12.539530 -6.151390
					CHANNELS 3 Xrotation Yrotation Zrotation
					End Site
					{
						OFFSET 0.000000 -5.044995 -1.291870
					}
				}
			}
		}
	}
}
MOTION
Frames: 7
Frame Time: 0.016667
-25.026112 -19.037891 83.045929 1.466178 4.647819 605.310489 3.656979 -0.308890 1.355005 1.646999 -0.122786 0.384749 1.646999 -0.122786 0.384752 1.235172 -0.093127 0.288235 14.835125 -0.280253 -0.206120 -8.635814 -0.431673 -0.480587 1.449185 -10.780625 -1.981852 20.847653 -76.475463 30.726880 14.440331 1.334125 4.599845 -13.338919 26.370066 26.054761 0.776902 10.477981 -2.510465 13.297654 80.790080 -18.286208 -11.317600 -4.316389 0.996980 -4.343234 -5.503109 -24.112943 3.756943 -4.730799 -2.249707 1.361206 -2.107807 -4.074898 -3.712602 2.594978 -2.001347 -0.357707 -0.368220 0.023223 2.060375 4.418324 -1.170702 2.701290 -1.096052 3.442471 1.274468 -0.869928 -1.244062 0.608826 -0.819158 0.035130 
-24.941357 -19.137165 83.052284 1.284634 4.205823 605.301418 3.262397 -0.340217 1.740123 1.641802 -0.120866 0.407466 1.641802 -0.120866 0.407463 1.231272 -0.091745 0.305275 14.784902 -0.283536 -0.300194 -8.729094 -0.401870 -0.653011 1.544900 -10.863333 -1.913223 22.219013 -76.243032 31.888094 15.331596 1.281567 4.502272 -13.481154 26.619137 26.552577 0.765930 10.581635 -2.479514 12.804686 80.589907 -17.891771 -11.034107 -4.187142 0.932051 -4.500119 -5.388971 -23.928941 3.156462 -4.715811 -1.838940 1.352368 -2.127575 -4.234636 -3.459414 2.713067 -2.218187 -0.379722 -0.392868 0.050772 1.622628 4.426649 -0.976275 2.454042 -1.133326 3.316086 1.420341 -0.646528 -1.302196 0.598278 -0.842496 0.013545 
-24.893219 -19.227560 83.071198 1.220094 4.126074 605.614951 3.243195 -0.354579 1.781069 1.644491 -0.123421 0.420937 1.644491 -0.123421 0.420939 1.233284 -0.093699 0.315373 14.746549 -0.286750 -0.375585 -8.800272 -0.378960 -0.791393 1.599237 -10.925790 -1.873611 23.194242 -76.113538 32.733258 16.440993 1.358974 4.141451 -13.591808 26.788320 27.048550 0.729186 10.668431 -2.434426 11.845291 80.471506 -17.022105 -10.771945 -4.059693 0.851766 -4.605503 -5.306801 -23.709028 2.959889 -4.677006 -1.703528 1.396593 -2.140395 -4.412870 -3.314246 2.813520 -2.428381 -0.397729 -0.413628 0.085479 1.507869 4.486181 -1.354830 2.344256 -1.189853 3.306371 1.601819 -0.397796 -1.273258 0.520725 -0.862878 -0.001968 
-24.803650 -19.329500 83.091614 1.171543 4.057283 605.938156 3.246977 -0.375105 1.810038 1.657284 -0.131224 0.430685 1.657284 -0.131224 0.430685 1.242871 -0.099586 0.322657 14.710274 -0.294516 -0.442948 -8.867588 -0.367312 -0.916890 1.650784 -10.937867 -1.858953 23.893453 -76.158030 33.399608 17.558707 1.556959 3.578739 -13.756728 26.887560 27.536574 0.752160 10.683148 -2.424070 11.117145 80.440934 -16.429248 -10.625663 -3.944071 0.776793 -4.675372 -5.209210 -23.558050 2.717556 -4.641085 -1.548305 1.506764 -2.168793 -4.622715 -3.171026 2.906791 -2.669358 -0.422968 -0.420593 0.115958 1.332951 4.520066 -1.807907 2.330237 -1.221842 3.318668 1.782275 -0.153050 -1.228177 0.443076 -0.875555 -0.011163 
-24.688499 -19.436861 83.108528 1.152088 4.016445 606.253383 3.288279 -0.400166 1.832730 1.681253 -0.143380 0.438301 1.681253 -0.143380 0.438304 1.260837 -0.108742 0.328335 14.678141 -0.307242 -0.499010 -8.927237 -0.368933 -1.023725 1.645006 -10.905089 -1.855656 24.870011 -76.318676 34.312070 18.304910 1.818525 2.918743 -13.933153 26.874590 27.942297 0.748753 10.636889 -2.433483 11.324358 80.437082 -16.708026 -10.631508 -3.855045 0.722981 -4.756199 -5.104288 -23.499911 2.477342 -4.611114 -1.431583 1.656974 -2.212128 -4.794105 -3.048220 2.983405 -2.911032 -0.436199 -0.408794 0.138729 1.147748 4.542551 -2.241806 2.375833 -1.260450 3.348501 1.938608 0.105590 -1.196257 0.388019 -0.890546 -0.016451 
-24.568008 -19.547569 83.119370 1.158471 4.007039 606.547900 3.359064 -0.425507 1.849227 1.711682 -0.157668 0.446675 1.711683 -0.157668 0.446673 1.283647 -0.119502 0.334567 14.657050 -0.322199 -0.547026 -8.966401 -0.377708 -1.116744 1.611890 -10.846841 -1.863627 26.559310 -76.487457 35.858927 18.450959 2.087737 2.253738 -14.187980 26.785446 28.320935 0.715448 10.570088 -2.458622 12.481982 80.410506 -17.840290 -10.705247 -3.800600 0.685924 -4.915452 -5.011892 -23.470051 2.271438 -4.583541 -1.410556 1.817174 -2.254396 -4.884794 -2.962924 3.027779 -3.106404 -0.419817 -0.379139 0.147958 0.988681 4.577434 -2.584196 2.439763 -1.330720 3.411539 2.077471 0.343955 -1.242893 0.351884 -0.881297 -0.020049 
-24.454218 -19.658310 83.126030 1.185105 4.023143 606.811928 3.436992 -0.452021 1.855985 1.741723 -0.171967 0.453669 1.741723 -0.171967 0.453670 1.306166 -0.130269 0.339767 14.661576 -0.339814 -0.582172 -8.958065 -0.396410 -1.187310 1.613724 -10.774862 -1.852878 28.645894 -76.598987 37.775850 18.145219 2.298814 1.646665 -14.466377 26.668820 28.659890 0.733341 10.501842 -2.509453 13.919629 80.346220 -19.230353 -10.737446 -3.779314 0.682571 -5.095279 -4.915746 -23.443620 2.113892 -4.557434 -1.492833 1.963236 -2.296091 -4.927107 -2.910137 3.045313 -3.191288 -0.378745 -0.338798 0.154648 0.880381 4.617639 -2.763163 2.480182 -1.419247 3.412437 2.202116 0.551603 -1.339413 0.336263 -0.851116 -0.023386 
